<svg width="215" height="49" viewBox="0 0 215 49" fill="none" xmlns="http://www.w3.org/2000/svg">
<path d="M5.59933 15.6349C5.21015 18.2277 3.61699 20.0788 0.822496 21.1895L0.821811 21.04C2.31838 20.1359 3.21445 19.183 3.51002 18.1865C2.10809 18.2916 1.26059 18.5452 0.962285 18.9459C1.15602 17.7487 1.50142 16.8989 2.00111 16.399C2.19941 16.1974 3.39882 15.944 5.59933 15.6349ZM78.2688 23.2271C78.2757 24.7224 77.9815 26.018 77.3862 27.1183C76.7919 28.416 75.8945 29.0695 74.6939 29.075C73.8922 29.0787 73.2917 29.0294 72.8924 28.9341C72.8947 29.4316 72.897 29.9292 72.8993 30.4294C72.9084 32.4223 72.6631 33.6686 72.166 34.1711C68.1844 38.7733 64.4431 41.0851 60.9424 41.1011C59.4417 41.108 58.2871 40.4146 57.4813 39.0231C56.775 37.928 56.42 36.684 56.4136 35.2897C56.4031 32.9951 56.9386 30.1519 58.0253 26.7588C56.8289 27.6611 54.8347 29.514 52.0479 32.319C48.9594 35.3238 46.7179 37.428 45.3236 38.6302C42.7298 40.6354 40.6335 41.6424 39.0345 41.6498C37.8339 41.6553 36.7808 41.0855 35.8752 39.9446C34.9695 38.8018 34.5132 37.4831 34.5064 35.9878C34.4982 34.1931 35.0879 31.8962 36.2757 29.1015C36.0743 29.2004 35.8262 29.2527 35.526 29.2541C34.8248 29.2573 34.2243 29.2081 33.7245 29.1132C33.7268 29.6108 33.7291 30.1083 33.7314 30.6085C33.7405 32.6014 33.5441 33.7982 33.1475 34.2C28.4646 38.8058 24.6743 41.1174 21.7738 41.1307C20.2732 41.1376 19.119 40.5444 18.314 39.3514C17.5068 38.1596 17.1014 36.7151 17.0936 35.0205C17.0909 34.4224 17.3332 33.099 17.8258 31.0545C18.3158 29.0074 18.5587 27.238 18.5518 25.7427C18.5463 24.5465 18.391 23.3995 18.0859 22.3056C16.8839 22.012 15.6795 21.1693 14.4726 19.78C13.2656 18.3885 12.4607 17.6954 12.0619 17.6972C11.5603 17.6995 10.7643 18.5495 9.67242 20.2506C8.87624 21.5485 8.18361 22.8485 7.58928 24.1477C9.89494 25.3334 11.0582 27.9191 11.0765 31.9071L10.3261 31.9106C9.22199 31.4173 8.16862 30.8756 7.16718 30.282C6.16302 29.5883 5.65849 28.5435 5.6521 27.1491C3.3547 28.2557 2.2124 29.7563 2.22109 31.6509C2.222 31.8494 3.20794 34.1369 5.17894 38.5155C7.14993 42.8916 8.14137 46.3761 8.15325 48.9693L7.85311 48.9707C7.64396 47.3754 6.4817 44.4393 4.3611 40.1634C2.44108 36.1845 1.47828 33.2988 1.47006 31.5044C1.45817 28.9108 2.99704 26.5112 6.08929 24.3056C6.48215 23.007 7.47511 21.2574 9.06667 19.0583C10.8556 16.4564 12.299 15.1556 13.4008 15.1505C13.7996 15.1487 14.7556 16.0415 16.2645 17.829C16.0603 17.3297 15.9598 16.8326 15.9575 16.3351C15.9515 15.0383 16.3967 13.9405 17.293 13.0392C18.1893 12.1379 19.2869 11.6839 20.5884 11.6779C21.5874 11.6733 23.5405 12.1369 26.4476 13.072C29.3523 14.0045 31.9057 14.4676 34.1076 14.4575L32.3204 17.4563C30.9193 17.6613 28.6724 18.5688 25.5797 20.1789C22.8848 21.5856 20.637 22.295 18.8362 22.3032C18.7353 22.3037 18.5361 22.3046 18.2359 22.306C18.742 23.6985 18.9995 25.1926 19.0068 26.7885C19.0128 28.0831 18.8434 29.5302 18.5015 31.1273C18.1569 32.7233 17.9876 33.6205 17.9886 33.8216C18.0032 37.0108 19.3093 38.6003 21.9123 38.5884C23.8118 38.5797 26.0087 37.5722 28.5016 35.5675C30.0946 34.2634 31.5891 32.9114 32.9851 31.5099C32.9819 30.8112 32.5759 29.717 31.7695 28.2253C31.3643 27.33 30.91 26.4349 30.4066 25.5403L31.4454 22.9935C32.3522 24.3841 33.0059 25.3273 33.4093 25.8253C34.1114 26.5185 34.8634 26.8661 35.6651 26.8624C36.6642 26.8578 37.4641 26.4549 38.0607 25.6552C38.0539 24.1599 37.9463 22.714 37.7407 21.3198L35.1169 5.48154C35.0114 4.4865 34.8088 3.73975 34.5064 3.24132L35.2471 1.14407L37.971 6.06585L37.9751 6.96303L36.6183 5.62344C36.5183 5.82502 36.5192 6.02353 36.621 6.22194L38.9413 21.3139C39.0414 21.7108 39.0964 22.4096 39.1009 23.407C39.1146 26.3976 38.321 28.2447 36.7252 28.9507C35.7339 31.147 35.2435 33.0932 35.2512 34.7893C35.2554 35.6865 35.6085 36.5308 36.3134 37.3272C37.117 38.2204 38.069 38.665 39.1708 38.6599C40.9717 38.6517 43.2657 37.2954 46.0555 34.591C48.5447 32.2849 51.036 29.9329 53.5267 27.5286C55.4189 25.9233 57.2649 24.5698 59.0607 23.4654C58.5578 23.2674 57.805 22.7235 56.8022 21.8313C55.3948 20.7394 54.6905 19.497 54.6841 18.1026C54.6736 15.8085 55.918 14.6577 58.42 14.6462C63.2222 14.6242 68.4271 15.446 74.0388 17.1167L72.1016 20.1163C70.3036 20.7231 67.0571 22.0322 62.365 24.0488C62.868 24.8435 63.4278 26.7356 64.0418 29.7234C61.3406 29.7358 59.9863 28.9424 59.979 27.3495C59.9781 27.1488 60.0256 26.8001 60.1242 26.3021C60.2206 25.8018 60.2704 25.4528 60.2695 25.2547C59.8698 25.5556 59.2717 25.955 58.4742 26.4584C57.4875 29.6522 56.9991 32.0477 57.0064 33.6432C57.021 36.8323 58.3789 38.4216 61.0802 38.4092C63.9806 38.396 67.6724 36.0358 72.153 31.3308C72.0489 30.6325 71.6432 29.5383 70.9374 28.0462C70.4321 27.2496 69.9781 26.4057 69.5751 25.5104L70.4632 22.8147C71.3705 24.3059 72.0734 25.2488 72.5772 25.6458C73.1806 26.3395 73.9326 26.687 74.833 26.6829C75.8317 26.6783 76.632 26.2754 77.2286 25.4757C77.1209 23.9808 76.9642 22.5352 76.7585 21.141L74.2855 5.45119C74.0786 4.35642 73.8758 3.56033 73.6743 3.06181L74.415 0.964565L76.9888 5.8874L76.9929 6.78459L75.7862 5.44394C75.6866 5.74383 75.6878 5.99393 75.7896 6.19159L78.1092 21.1344C78.2097 21.5309 78.2643 22.2294 78.2688 23.2271ZM11.1272 10.2263C11.135 11.9201 10.5877 12.7712 9.4881 12.7763C8.48676 12.7809 7.98489 12.2336 7.97987 11.1383C7.97667 10.4396 8.12286 9.59333 8.41843 8.59421C9.01322 7.39521 9.31016 6.69739 9.30924 6.49627C9.51212 7.29498 9.56415 7.84128 9.46685 8.14043C10.5692 8.73351 11.1235 9.42967 11.1272 10.2263ZM10.6797 10.8265C10.2764 10.3285 9.67489 9.98248 8.87411 9.78802C8.47488 10.1872 8.2768 10.4375 8.27727 10.5384C8.28001 11.1366 8.63066 11.434 9.33186 11.4308C9.83121 11.4285 10.2805 11.2253 10.6797 10.8265ZM14.8447 35.4806L13.8017 37.1295C13.2023 37.3307 12.5514 37.484 11.8529 37.5874C10.7524 37.9898 10.206 38.4409 10.2083 38.9411C10.7172 40.9317 10.9742 42.3257 10.9778 43.1241C10.9861 44.9189 10.9394 45.9658 10.8421 46.2646C10.8371 45.1663 10.6287 43.7235 10.222 41.931C9.81309 40.1377 9.60824 38.9921 9.60596 38.4945C9.60185 37.5977 9.92251 36.9977 10.5732 36.6957C11.2212 36.3929 11.8462 36.1403 12.4456 35.9394C12.0436 35.6414 11.6932 35.4942 11.3931 35.4956L10.4961 36.2474L10.4927 35.4997C10.791 35.0988 11.0376 34.7238 11.2379 34.3748C11.4355 34.0233 11.6857 33.8498 11.9858 33.8484C12.5861 33.846 13.5382 34.3882 14.8447 35.4806ZM16.0109 27.9985L14.8214 30.3957L12.2647 29.2119L13.1555 27.1144L10.899 25.9281L11.9385 23.5315L14.6453 24.7154L13.6044 26.8132L16.0109 27.9985ZM28.714 16.4261C28.1133 16.328 26.7097 15.9867 24.5073 15.3983C22.7037 14.8088 21.3 14.5162 20.3013 14.5207C17.9985 14.5313 16.8536 15.3825 16.8613 17.0786C16.8645 17.7747 17.1165 18.4722 17.6213 19.1686C18.0219 19.5641 18.5244 19.763 19.1247 19.7602C20.5245 19.7538 22.1242 19.3468 23.9214 18.542C26.8159 17.2315 28.4143 16.5255 28.714 16.4261ZM30.1167 27.7843C28.6334 31.5784 26.7403 33.4821 24.4401 33.4926C22.738 33.5004 21.8853 32.7055 21.878 31.1118C21.8721 29.815 22.9655 28.4649 25.161 27.0597C24.759 26.7621 24.3572 26.6144 23.9584 26.6163C23.4568 26.6186 22.9582 26.8687 22.4611 27.3708L22.4584 26.7727C22.9527 25.6721 23.6514 25.1223 24.5518 25.1182C26.0525 25.1113 27.254 25.3043 28.1562 25.7006L26.3629 27.3525C25.6626 27.5543 24.8885 28.0068 24.043 28.7097C23.195 29.4097 22.7734 30.0098 22.7757 30.5099C22.7798 31.4071 23.5813 31.8521 25.1829 31.8447C26.2829 31.8397 27.3798 31.2365 28.4762 30.0356C28.9719 29.2333 29.5196 28.4831 30.1167 27.7843ZM32.7247 7.4357C32.7302 8.63157 32.3319 9.23191 31.5324 9.23557C31.1313 9.23741 30.7294 9.04075 30.3291 8.64258C30.0326 9.44357 29.5843 9.84226 28.984 9.84502C28.2828 9.84823 27.9314 9.40124 27.9273 8.50405C27.9246 7.90555 27.9219 7.3078 27.9191 6.70968C27.7182 6.91172 27.4712 7.21155 27.1729 7.60993L27.1701 7.0118C27.3671 6.51333 27.8638 5.86357 28.6619 5.06102C28.3714 7.15583 28.5754 8.20164 29.2766 8.19842C29.7759 8.19614 30.0253 7.84658 30.0221 7.14789C30.0208 6.84883 29.9171 6.25154 29.7138 5.3549L30.1599 4.45677C30.4623 4.9552 30.6653 5.70194 30.7704 6.69698C30.7736 7.39567 31.0239 7.74256 31.5256 7.74026C31.8257 7.73889 31.9746 7.49035 31.9723 6.99054L31.5132 5.0487L32.1087 3.99923C32.5134 5.29421 32.7202 6.44057 32.7247 7.4357ZM41.3965 33.1158C41.302 34.5107 40.8058 35.2124 39.9054 35.2165C39.005 35.2207 38.5527 34.7738 38.5486 33.8766C38.5427 32.5798 39.2348 31.0813 40.629 29.381C39.9351 30.9779 39.5911 32.1264 39.5943 32.825C39.5975 33.5207 39.8475 33.8706 40.3495 33.8683C40.8488 33.866 41.1478 33.6146 41.2464 33.1165L41.3965 33.1158ZM44.3581 24.4293C44.3677 26.5224 44.124 28.1175 43.6297 29.2177L43.3296 29.2191C43.4178 27.0247 43.309 24.7332 42.9979 22.3424L40.2193 5.45778C40.1138 4.46274 39.9111 3.71599 39.6087 3.21756L40.3494 1.12031L42.9232 6.04315L42.9273 6.94034L41.7206 5.59968C41.6206 5.80127 41.6215 5.99977 41.7234 6.19818L44.1978 22.187C44.2984 22.6841 44.3536 23.4315 44.3581 24.4293ZM51.0256 5.70695C51.0274 6.1062 50.8794 6.55622 50.5815 7.05479C50.28 6.7571 50.0283 6.6091 49.8291 6.61001C49.3275 6.61231 48.9319 7.31282 48.6382 8.70895C48.4404 9.60706 48.2949 10.6033 48.2017 11.7016C47.8979 10.9038 47.3915 9.85935 46.6866 8.56836C46.588 9.06938 46.289 9.31785 45.7896 9.32014C44.9875 9.32382 44.587 8.87742 44.5829 7.97986C44.5779 6.8838 44.925 6.33342 45.6258 6.33021C46.5262 6.32608 47.3305 7.36951 48.0413 9.45936C48.6251 5.86786 49.3673 4.07004 50.2677 4.06592C50.767 4.06326 51.0205 4.61126 51.0256 5.70695ZM51.214 14.08C50.8253 16.773 49.2839 18.6238 46.5872 19.634L46.4365 19.4851C47.9331 18.5814 48.8291 17.6282 49.1247 16.6317C47.7231 16.7364 46.8753 16.99 46.577 17.391C46.7707 16.1938 47.1161 15.344 47.6158 14.8442C47.8141 14.6425 49.0135 14.3892 51.214 14.08ZM51.1064 23.3516L49.9168 25.7489L47.3602 24.5651L48.5498 22.1671L51.1064 23.3516ZM53.881 39.3391C53.8874 40.7338 53.3886 41.4352 52.3899 41.4398C51.4895 41.4439 51.0372 40.9977 51.0331 40.0998C51.0272 38.803 51.7189 37.3045 53.1135 35.6042L53.2636 35.6035C52.4688 37.2008 52.0756 38.35 52.0788 39.0483C52.082 39.7443 52.3323 40.0938 52.8339 40.0915C53.3337 40.0893 53.6323 39.8382 53.7309 39.3398L53.881 39.3391ZM56.4356 7.32703C56.441 8.52291 56.1966 9.87021 55.7037 11.3678C55.7987 10.5685 55.846 9.67331 55.8415 8.67556C55.8332 6.88119 55.2757 5.48896 54.1715 4.49626L54.3134 2.70119C55.0141 3.09724 55.5426 3.79389 55.8987 4.78741C56.2525 5.78355 56.4324 6.63059 56.4356 7.32703ZM68.9454 19.0829C66.1378 17.8995 62.8827 17.3163 59.1827 17.3332C57.3819 17.3415 56.1822 17.5455 55.5838 17.9479C55.5847 18.1464 56.2368 18.7161 57.5426 19.6589C58.8458 20.5987 59.9522 21.517 60.8568 22.4097C62.9531 21.4024 65.6494 20.2943 68.9454 19.0829ZM72.1695 2.17076C72.1722 2.76926 71.9994 3.46875 71.6538 4.26697C71.3056 5.06746 70.884 5.66715 70.3865 6.06719C70.9812 4.86819 71.2775 4.02122 71.2752 3.52104C66.1802 5.14029 61.5404 7.85317 57.3558 11.6597C57.4522 11.159 57.5505 10.661 57.6491 10.163C59.3413 8.46139 61.6109 6.85508 64.4553 5.3467C67.2998 3.83795 69.8698 2.77943 72.1695 2.17076ZM68.5384 28.5054C68.7412 29.3015 68.5441 29.7507 67.9443 29.8543C67.6446 29.954 67.1934 29.7568 66.5909 29.262C66.193 29.9599 65.5479 30.9109 64.653 32.1124C63.5567 33.4117 62.1115 34.2179 60.312 34.5245L58.9628 34.8298C60.3593 34.1247 61.905 33.1202 63.6012 31.8178C64.9959 30.7131 65.9404 29.6131 66.4374 28.5151C66.8325 27.714 67.182 27.2642 67.4817 27.1637C67.9806 27.062 68.3319 27.5086 68.5384 28.5054ZM69.6574 10.7057C69.6628 11.902 69.2645 12.5023 68.465 12.506C68.064 12.5078 67.6621 12.2596 67.2611 11.7638C66.9646 12.5618 66.5162 12.9631 65.9159 12.9659C65.3156 12.9686 64.9619 12.5714 64.86 11.7748C64.8568 11.0761 64.8538 10.4287 64.8511 9.83092C64.651 10.1309 64.4531 10.4309 64.2549 10.7305L64.2528 10.2819C64.3488 9.78163 64.7961 9.13434 65.5945 8.33179C65.3035 10.3264 65.5073 11.3229 66.2085 11.3197C66.7082 11.3174 66.9575 11.0172 66.9548 10.419C66.9534 10.12 66.8495 9.47372 66.6457 8.47651L67.2426 7.7261C67.4436 8.12481 67.5969 8.82281 67.7024 9.81785C67.7055 10.5143 67.9559 10.8634 68.4575 10.8611C68.7576 10.8598 68.9068 10.6579 68.905 10.2609C68.9045 10.16 68.7515 9.51397 68.4458 8.3191L69.0406 7.1201C69.4454 8.41471 69.6523 9.61003 69.6574 10.7057ZM68.2403 28.9554C67.8365 28.3587 67.3856 28.2116 66.8876 28.513C67.4897 28.9073 67.9406 29.0547 68.2403 28.9554ZM81.9246 35.0236C81.9292 36.0187 81.6313 36.5203 81.0311 36.523C80.63 36.5249 80.1791 36.3778 79.6784 36.0803C77.99 39.1777 74.8454 40.6875 70.2446 40.6095L70.0945 40.6102L70.0939 40.461C74.5909 39.3421 77.6343 37.7838 79.2268 35.784C78.7243 35.5852 78.4742 35.2873 78.4723 34.8906C78.471 34.5908 78.6194 34.2402 78.9178 33.8411C79.2161 33.4408 79.4635 33.2405 79.6654 33.2395L79.5125 32.6421L79.6619 32.4919C79.8611 32.491 80.2113 32.6879 80.7152 33.0852L80.7158 33.2347C81.5194 34.1282 81.9232 34.7245 81.9246 35.0236ZM83.526 24.2498C83.5356 26.3428 83.2923 27.938 82.7976 29.0382L82.4975 29.0396C82.5857 26.8451 82.4251 24.5539 82.0157 22.1636L79.3871 5.27827C79.1807 4.28369 78.9781 3.53695 78.7766 3.03806L79.5173 0.940807L82.0911 5.86364L82.0952 6.76083L80.8885 5.42018C80.7885 5.62176 80.7403 5.82049 80.7412 6.01936L83.3657 22.0075C83.4666 22.5046 83.5214 23.252 83.526 24.2498ZM80.2704 34.2835C80.2695 34.0824 80.1681 33.9845 79.9689 33.9854C79.5682 33.9873 79.2684 34.1382 79.0706 34.4382C79.2711 34.7363 79.5726 34.9334 79.9737 35.0325C79.9733 34.9316 80.0218 34.8076 80.1221 34.658C80.2197 34.508 80.2709 34.3814 80.2704 34.2835ZM214.857 28.1339C214.863 29.5287 214.542 30.6778 213.896 31.5776C213.249 32.477 212.526 32.9297 211.727 32.9334C210.226 32.9402 209.171 31.9963 208.562 30.1063C208.171 32.0009 207.323 32.9535 206.024 32.9595C204.824 32.965 204.018 32.1691 203.613 30.5784C202.819 32.4747 201.424 33.4296 199.424 33.4387C198.723 33.4419 198.147 33.1691 197.694 32.6246C197.242 32.0775 197.013 31.4542 197.01 30.7585C197.008 30.4591 197.007 30.2094 197.006 30.0109C182.92 34.4605 168.523 36.7213 153.817 36.7887C146.712 36.8213 139.757 36.2546 132.949 35.0892C126.44 34.1216 121.582 32.7981 118.374 31.1189C118.38 32.5133 118.334 33.9087 118.243 35.3061L117.943 35.3075C116.739 34.5141 115.984 33.5714 115.679 32.4767C115.574 31.6776 115.496 30.9303 115.444 30.2348C115.388 29.5363 114.763 29.1904 113.563 29.1959C112.461 29.201 110.592 30.8039 107.957 34.0074C105.32 37.2084 103.301 38.8139 101.902 38.8203C101.099 38.824 100.399 38.4533 99.7954 37.7084C99.1917 36.9635 98.8869 35.9417 98.881 34.6472C98.8778 33.9485 99.024 33.1 99.3195 32.1031C98.8188 32.3039 98.32 32.4067 97.8202 32.409C95.8179 32.4182 94.5125 31.0784 93.8999 28.3896C93.7132 31.6802 92.22 33.3319 89.4205 33.3447C88.2199 33.3502 87.3166 32.7046 86.7104 31.4132C86.3051 30.4173 86.1494 29.2711 86.2444 27.9761C86.2435 27.7753 86.3386 27.0784 86.5349 25.8812C86.629 24.883 86.6763 23.9856 86.6727 23.189C85.976 24.1877 85.4826 25.4868 85.1898 27.0829C84.9934 28.1803 84.7992 29.2765 84.6046 30.3761C84.2118 32.1723 83.5665 33.0717 82.666 33.0759C81.9648 33.0791 81.3619 32.5076 80.8573 31.3645C80.3501 30.2199 80.0961 28.9986 80.0902 27.7044C80.0838 26.3074 80.175 24.7627 80.3691 23.0676L80.6699 23.2158C80.5726 24.0128 80.5272 24.8101 80.5308 25.6082C80.5463 28.9962 81.2531 30.6898 82.6551 30.6834C83.1544 30.6811 83.6012 29.9314 83.9954 28.4342C84.6826 25.938 85.077 24.4898 85.1761 24.0919C85.8673 22.3931 86.7624 21.2435 87.8616 20.6407L87.8705 22.5842C87.4813 25.1775 87.2894 26.7742 87.2921 27.3724C87.3022 29.5634 88.1067 30.6584 89.7083 30.6511C90.7074 30.6465 91.5823 30.2428 92.329 29.4428C93.0757 28.6405 93.4465 27.6926 93.4415 26.5965L92.3643 20.77L93.105 18.6731C93.609 19.6663 93.9128 20.4638 94.0164 21.0611C94.3243 22.7535 94.5807 24.4978 94.7908 26.2913C95.4024 28.7793 96.5078 30.0218 98.1094 30.0144C99.1081 30.0098 99.8075 29.6077 100.205 28.8093C99.6982 27.7133 99.1939 26.6199 98.6891 25.5257C97.9797 23.7349 97.5722 22.3398 97.4694 21.3451L97.0144 20.3001L97.6051 18.2039L99.7211 21.4839L99.7245 22.2316C99.4235 22.0319 99.1222 21.7858 98.8207 21.4881C98.7207 21.687 98.7211 21.7876 98.822 21.7871C100.236 24.9698 100.948 27.1606 100.953 28.3572C100.961 30.1516 100.566 31.3497 99.7691 31.9519C99.4735 32.9484 99.3268 33.6967 99.3291 34.1969C99.3355 35.5913 100.038 36.2875 101.44 36.2811C102.739 36.2751 104.682 34.6445 107.27 31.3945C109.855 28.1419 111.9 26.5134 113.401 26.5065C113.9 26.5042 114.603 26.8001 115.506 27.3937L116.248 25.5955C117.657 27.582 121.818 29.4059 128.729 31.0707C136.639 32.8285 145.699 33.6842 155.904 33.6374C162.806 33.6058 170.406 32.9728 178.706 31.7385C185.904 30.6072 192.4 29.2316 198.196 27.6118C197.996 27.9118 197.899 28.2595 197.901 28.6599C197.904 29.2584 198.105 29.804 198.509 30.3012C198.91 30.7973 199.361 31.045 199.863 31.0427C200.862 31.0381 201.91 30.5335 203.007 29.5329L204.949 27.5812L205.1 27.73C205.101 27.9285 205.102 28.1274 205.103 28.3285C205.109 29.7225 205.612 30.4197 206.613 30.4151C207.112 30.4128 207.661 29.9621 208.257 29.0617C208.95 27.8623 209.449 27.1617 209.748 26.9611L209.898 26.9604C209.899 27.1589 209.9 27.3578 209.901 27.5589C209.904 28.3555 210.182 29.0765 210.736 29.7233C211.288 30.3675 211.815 30.6903 212.316 30.688C213.315 30.6834 213.815 30.2819 213.811 29.4845C213.807 28.5881 213.049 26.7971 211.536 24.1125C209.921 21.2275 209.062 19.4882 208.961 18.8906C208.859 18.6899 208.707 18.417 208.507 18.0702C208.304 17.7205 208.204 17.4966 208.203 17.3987L208.643 15.1537L211.659 18.2797L211.662 18.8774L210.309 18.2851L210.31 18.5846C211.115 19.7768 211.92 20.9694 212.727 22.1623C214.139 24.6463 214.85 26.6386 214.857 28.1339ZM81.4765 35.4742C81.2741 35.2744 80.9723 34.9274 80.5713 34.4317L80.2745 35.1807C80.5756 35.3778 80.8762 35.477 81.1763 35.4756C81.275 35.4752 81.3755 35.4747 81.4765 35.4742ZM99.1749 0.551648C99.1772 1.05146 98.9783 1.69985 98.5836 2.4983C98.1865 3.29901 97.7885 3.94832 97.3919 4.44771C97.9867 3.24871 98.2828 2.34977 98.28 1.75202C92.0846 3.77558 86.8456 6.73906 82.5632 10.6466C82.561 10.1468 82.6571 9.59941 82.8558 9.00073C84.5484 7.39969 87.1414 5.69134 90.6361 3.88054C93.9299 2.17159 96.7761 1.06246 99.1749 0.551648ZM93.0324 35.5708C93.0347 36.0684 92.8351 36.5669 92.439 37.0689C92.2358 36.77 91.9867 36.6224 91.6866 36.6237C91.185 36.626 90.7892 37.2746 90.495 38.5731C90.3986 39.5687 90.2535 40.5672 90.0585 41.5658C89.8534 40.8681 89.3493 39.8236 88.5434 38.4325C88.4452 39.0311 88.1956 39.3313 87.7972 39.3332C86.8967 39.3373 86.4442 38.8392 86.4397 37.844C86.4351 36.8463 86.8316 36.3469 87.6334 36.3432C88.4329 36.3396 89.2372 37.3826 90.0489 39.472C90.5318 35.8806 91.2739 34.0835 92.2752 34.0789C92.7746 34.0767 93.0279 34.5731 93.0324 35.5708ZM93.2311 13.4388C93.2366 14.6351 92.7891 15.2353 91.8887 15.2394C91.5886 15.2408 91.1864 14.9925 90.6848 14.4972C90.4866 15.2948 90.0382 15.6965 89.3396 15.6997C88.7394 15.7024 88.3856 15.3044 88.2837 14.5083C88.2805 13.8096 88.2775 13.1625 88.2748 12.5643C88.0743 12.8643 87.8764 13.1647 87.6786 13.4643L87.6759 12.8662C87.8732 12.4664 88.3207 11.8658 89.0182 11.0656C88.8255 13.0594 89.032 14.0562 89.6322 14.0535C90.132 14.0512 90.381 13.6994 90.3778 13.0033C90.3769 12.8022 90.2732 12.2045 90.0694 11.2103L90.6663 10.4599C90.9682 10.8559 91.1215 11.5535 91.1261 12.5513C91.2279 13.2469 91.5297 13.5962 92.0313 13.5939C92.3314 13.5925 92.4806 13.3914 92.4787 12.9937C92.4783 12.8931 92.3252 12.2467 92.0196 11.0518L92.4643 9.85353C92.9696 11.1458 93.2261 12.3405 93.2311 13.4388ZM96.9753 11.7768C96.9808 12.973 96.7363 14.32 96.2435 15.8176C96.3385 15.0183 96.3858 14.1212 96.3812 13.1257C96.373 11.331 95.8154 9.93649 94.7113 8.9464L94.8524 7.00181C95.455 7.49886 95.9581 8.24423 96.3634 9.2379C96.7664 10.2308 96.9721 11.0781 96.9753 11.7768ZM105.136 24.1507C105.145 26.2438 104.951 27.8387 104.558 28.9385L104.257 28.9399C104.346 26.7454 104.185 24.4542 103.776 22.0639L101.147 5.17855C100.941 4.18397 100.738 3.43722 100.537 2.93833L101.277 0.841082L103.851 5.76392L103.855 6.6611L102.648 5.32045C102.548 5.52203 102.5 5.72076 102.501 5.91964L105.126 21.9078C105.128 22.4053 105.131 23.153 105.136 24.1507ZM114.788 34.424C114.891 35.3207 114.693 35.8196 114.194 35.9221C113.894 35.9234 113.391 35.7254 112.691 35.3308C112.294 36.0291 111.697 36.929 110.902 38.0306C109.708 39.3303 108.211 40.185 106.412 40.5933L105.212 40.7483C106.508 40.1439 108.005 39.1882 109.701 37.8862C111.196 36.6827 112.19 35.5309 112.687 34.4329C113.082 33.6322 113.379 33.1822 113.581 33.083C114.08 33.0818 114.483 33.5286 114.788 34.424ZM113.764 7.66243C113.766 8.06168 113.618 8.51171 113.32 9.01027C113.019 8.71259 112.767 8.56458 112.568 8.56549C112.066 8.56779 111.671 9.21858 111.376 10.5145C111.18 11.6119 111.034 12.6099 110.94 13.5072C110.736 12.8098 110.231 11.8147 109.426 10.5235C109.327 11.0219 109.029 11.273 108.529 11.2752C107.727 11.2789 107.327 10.8325 107.323 9.93497C107.318 8.8389 107.664 8.28852 108.366 8.28531C109.266 8.28118 110.07 9.32461 110.781 11.4145C111.365 7.82296 112.107 6.02515 113.007 6.02102C113.506 6.01874 113.759 6.56674 113.764 7.66243ZM114.252 15.8846L113.209 17.5342C112.609 17.7351 111.959 17.9374 111.261 18.1413C110.16 18.4454 109.614 18.8965 109.617 19.4946C110.125 21.385 110.382 22.7297 110.386 23.5289C110.394 25.3233 110.347 26.3703 110.25 26.6694C110.245 25.5711 110.037 24.1518 109.63 22.4109C109.222 20.6673 109.016 19.5467 109.014 19.0492C109.009 18.0514 109.33 17.4029 109.981 17.1008C110.629 16.7988 111.254 16.5458 111.853 16.3446C111.35 16.1457 110.952 16.0496 110.651 16.051C110.75 16.0505 110.451 16.25 109.755 16.6532L109.9 15.9049C110.098 15.6049 110.322 15.2301 110.571 14.7803C110.817 14.3306 111.093 14.105 111.393 14.1036C111.993 14.1005 112.946 14.6943 114.252 15.8846ZM114.489 34.8743C114.086 34.2777 113.635 34.1306 113.137 34.4316C113.638 34.8267 114.089 34.9741 114.489 34.8743ZM117.622 30.8226C117.321 30.6232 116.869 30.1767 116.265 29.483C116.267 29.9805 116.394 30.5519 116.648 31.2009C116.9 31.8468 117.178 32.1704 117.478 32.169C117.577 32.1682 117.627 31.7197 117.622 30.8226ZM194.786 36.7494C194.285 36.7517 193.934 36.4538 193.732 35.8574C193.035 36.7574 192.387 37.2093 191.787 37.2121C191.586 37.213 191.262 37.065 190.81 36.7683C190.358 36.4706 190.08 36.3223 189.982 36.3228C189.48 36.3251 188.532 36.6292 187.135 37.233C185.337 38.0379 183.889 38.6427 182.79 39.0477C180.592 39.7535 178.192 40.1152 175.592 40.1271L175.441 39.8287C177.641 39.8186 179.84 39.3596 182.038 38.4523C183.237 38.0472 184.933 37.2427 187.13 36.0368C188.725 35.1326 189.874 34.678 190.575 34.6748C190.774 34.6739 191.076 34.871 191.478 35.2692C191.879 35.6647 192.231 35.8642 192.531 35.8629C192.93 35.861 193.378 35.3588 193.876 34.3614L194.324 34.0595C194.227 34.8573 194.479 35.2554 195.08 35.2527C195.381 35.2513 195.678 34.7497 195.973 33.7532L196.273 33.6027C196.282 35.6958 195.786 36.7448 194.786 36.7494ZM206.517 9.48036C206.519 9.87774 206.319 10.3785 205.923 10.9784C205.621 10.5802 205.369 10.3828 205.17 10.3837C204.668 10.386 204.273 11.0836 203.979 12.4827C203.882 13.3803 203.737 14.3272 203.542 15.3258C203.238 14.6289 202.732 13.6338 202.028 12.3421C201.929 12.8405 201.63 13.0916 201.131 13.0939C200.329 13.0975 199.928 12.6511 199.924 11.7536C199.919 10.6553 200.267 10.1071 200.967 10.1039C201.868 10.0998 202.672 11.1432 203.383 13.2331C203.967 9.64158 204.709 7.84377 205.609 7.83964C206.209 7.83689 206.512 8.38467 206.517 9.48036ZM205.369 20.9998C205.378 22.7941 204.831 23.6938 203.731 23.6989C202.73 23.7035 202.228 23.1566 202.223 22.0609C202.219 21.3626 202.415 20.5135 202.812 19.5161C203.407 18.3171 203.703 17.6175 203.702 17.4186C203.905 18.2143 203.957 18.7632 203.86 19.0624C204.861 19.6563 205.366 20.3011 205.369 20.9998ZM204.923 21.7495C204.52 21.2515 203.917 20.8573 203.116 20.5615C202.818 21.0608 202.67 21.3605 202.67 21.4607C202.672 21.9583 203.023 22.2068 203.724 22.2036C204.223 22.2013 204.624 22.0499 204.923 21.7495ZM212.491 35.9205L211.452 38.3175L208.894 36.9826L209.934 34.5861L212.491 35.9205Z" fill="white"/>
</svg>
