<svg width="33" height="34" viewBox="0 0 33 34" fill="none" xmlns="http://www.w3.org/2000/svg">
<g clip-path="url(#clip0_1482_1658)">
<path d="M29.1529 3.89605L28.3893 3.91169C27.1431 3.93723 26.0466 4.55904 25.3682 5.49735L25.3661 5.49739C24.1183 5.52296 23.021 6.1458 22.343 7.08562L22.343 7.08309C20.2375 7.12622 18.56 8.86964 18.603 10.9691L18.6781 14.6321L16.3836 16.9832L13.9947 14.7281L13.9196 11.0651C13.8766 8.96559 12.1291 7.29235 10.0236 7.33549L10.0237 7.33803C9.30777 6.42676 8.18586 5.84938 6.93805 5.87495L6.93601 5.87499C6.21982 4.96525 5.09865 4.38888 3.85246 4.41441L3.08887 4.43005L3.33396 16.3927L8.8758 22.6982L8.04699 22.7151L8.20302 30.3307L25.1039 29.9845L24.9479 22.3689L24.1191 22.3859L29.398 15.8587L29.1529 3.89605ZM12.3924 11.0963L12.4397 13.4044C11.9681 13.1335 11.4437 12.9668 10.9019 12.9153L10.834 9.60452C10.8295 9.38316 10.8048 9.16628 10.7642 8.95581C11.6883 9.23503 12.3717 10.0825 12.3924 11.0963ZM7.73552 7.5129C8.63079 7.80906 9.2865 8.64279 9.30685 9.63581L9.37729 13.0739C9.01592 13.1876 8.67362 13.3545 8.36175 13.5691L7.84957 13.0794L7.73552 7.5129ZM15.8587 28.6501L9.699 28.7763L9.60539 24.207L15.7651 24.0808L15.8587 28.6501ZM15.7338 22.5577L10.8713 22.6573L4.84978 15.8065L4.64994 6.05241C5.5452 6.34842 6.20092 7.1822 6.22126 8.17527L6.33531 13.7418L11.2385 18.4356L12.2967 17.3366L9.50194 14.6612C9.80337 14.5092 10.1373 14.4257 10.4851 14.4186C11.097 14.4061 11.6771 14.6319 12.1186 15.0546L15.6484 18.3869L15.7338 22.5577ZM23.1534 9.35212C23.133 8.3591 23.754 7.49921 24.6364 7.16663L24.7505 12.7331L24.2588 13.2434C23.9384 13.0418 23.5895 12.889 23.2238 12.7903L23.1534 9.35212ZM20.1302 10.9378C20.1094 9.92398 20.7575 9.04922 21.6694 8.73239C21.6366 8.94779 21.6221 9.16558 21.6262 9.38341L21.694 12.6942C21.1548 12.7678 20.6376 12.9559 20.1775 13.2458L20.1302 10.9378ZM23.5455 28.4926L17.3859 28.6188L17.2922 24.0495L23.4519 23.9233L23.5455 28.4926ZM27.8594 15.335L22.1236 22.4267L17.261 22.5264L17.1756 18.3557L20.5659 14.8815C20.9898 14.4411 21.5601 14.1917 22.172 14.1792C22.5198 14.172 22.8569 14.2417 23.1643 14.3813L20.4815 17.1689L21.5837 18.2236L26.2906 13.333L26.1765 7.76642C26.1562 6.7734 26.7772 5.91352 27.6596 5.58094L27.8594 15.335Z" fill="#8789A3"/>
<path d="M20.4287 25.509L21.9559 25.4777L21.9871 27.0008L20.4599 27.0321L20.4287 25.509Z" fill="#8789A3"/>
<path d="M11.1638 25.6988L12.691 25.6675L12.7222 27.1906L11.195 27.2219L11.1638 25.6988Z" fill="#8789A3"/>
</g>
<defs>
<clipPath id="clip0_1482_1658">
<rect width="26.0695" height="26" fill="white" transform="translate(3.08887 4.43005) rotate(-1.17372)"/>
</clipPath>
</defs>
</svg>
