<svg width="25" height="25" viewBox="0 0 25 25" fill="none" xmlns="http://www.w3.org/2000/svg">
<path d="M18.4674 9.57356C18.4748 9.57352 18.4823 9.57351 18.4898 9.57351C20.9751 9.57351 22.9898 11.5919 22.9898 14.0818C22.9898 16.4023 21.2398 18.3133 18.9898 18.5625M18.4674 9.57356C18.4822 9.40856 18.4898 9.24146 18.4898 9.07259C18.4898 6.02945 16.0274 3.5625 12.9898 3.5625C10.1131 3.5625 7.75215 5.77517 7.51024 8.59442M18.4674 9.57356C18.3651 10.7101 17.9184 11.7471 17.2326 12.579M7.51024 8.59442C4.9738 8.83623 2.98982 10.9764 2.98982 13.5808C2.98982 16.0042 4.70758 18.0257 6.98982 18.4898M7.51024 8.59442C7.66808 8.57937 7.82805 8.57167 7.98982 8.57167C9.11564 8.57167 10.1546 8.94444 10.9903 9.57351" stroke="#616161" stroke-width="1.5" stroke-linecap="round" stroke-linejoin="round"/>
<path d="M12.9898 21.5625V13.5625M12.9898 21.5625C12.2896 21.5625 10.9814 19.5682 10.4898 19.0625M12.9898 21.5625C13.69 21.5625 14.9983 19.5682 15.4898 19.0625" stroke="#616161" stroke-width="1.5" stroke-linecap="round" stroke-linejoin="round"/>
</svg>
