<svg width="100" height="100" viewBox="0 0 100 100" fill="none" xmlns="http://www.w3.org/2000/svg">
<rect width="100" height="100" rx="15.3846" fill="#FDBE00"/>
<path d="M49.3728 21.3705C49.2618 21.3669 49.1463 21.3778 49.0272 21.4079C45.6665 22.2724 43.2731 25.3459 43.2692 28.8467C43.2693 32.4189 45.7301 35.4224 49.0403 36.2798V38.171C46.9123 41.4878 42.1405 43.7038 37.6765 46.4999C35.3987 47.9267 33.203 49.5322 31.558 51.6325C29.913 53.7329 28.8462 56.3541 28.8462 59.6179C28.8462 63.9545 30.092 67.0961 31.4754 69.2276H68.5209C69.9054 67.0961 71.1576 63.9545 71.1576 59.6179C71.1576 56.3541 70.0833 53.7329 68.4383 51.6325C66.7932 49.5322 64.6051 47.9267 62.3272 46.4999C57.8684 43.707 53.0954 41.4928 50.9634 38.1823V36.5334C54.4406 36.5297 57.4744 34.1865 58.374 30.8449C58.8588 29.9045 57.6908 28.9849 56.8904 29.6767C56.0322 30.3801 54.9557 30.7705 53.8462 30.7717C51.1796 30.7717 49.0403 28.625 49.0403 25.9584C49.0102 24.8159 49.4989 23.7302 50.1258 22.9198C50.6711 22.2148 50.1495 21.3994 49.3728 21.3705ZM31.727 71.1507C30.1456 71.1507 28.8462 72.4596 28.8462 74.041V77.8797C28.8452 78.1347 28.9456 78.3796 29.1252 78.5607C29.3048 78.7417 29.5489 78.844 29.804 78.845H70.1923C70.3192 78.8455 70.445 78.8208 70.5623 78.7725C70.6796 78.7242 70.7862 78.6531 70.876 78.5633C70.9657 78.4736 71.0368 78.367 71.0851 78.2497C71.1335 78.1324 71.1581 78.0066 71.1576 77.8797V74.041C71.1576 72.4596 69.8507 71.1507 68.2692 71.1507H31.727Z" fill="white"/>
</svg>
