<svg width="34" height="33" viewBox="0 0 34 33" fill="none" xmlns="http://www.w3.org/2000/svg">
<g clip-path="url(#clip0_1482_1650)">
<path d="M25.055 4.70524L22.1027 5.95379L21.4936 4.63872L20.1759 4.80849C18.8537 4.97829 17.7094 5.47947 16.6237 6.37115C15.5021 5.52256 14.3465 5.06893 13.0366 4.9547L11.7126 4.83912L11.1584 6.17802L8.15672 5.05146L2.83799 18.1629L6.19892 19.363L6.3922 28.7965L16.9689 23.249L27.7639 28.3586L27.5708 18.9338L30.907 17.5882L25.055 4.70524ZM7.98185 26.11L7.85575 19.9551L14.9115 22.4754L7.98185 26.11ZM16.1038 21.1588L5.00444 17.1943L9.07915 7.14957L10.5298 7.69446L7.02631 16.1529L16.0679 19.4101L16.1038 21.1588ZM16.032 17.653L9.79203 15.4052C10.8387 14.8445 12.0932 14.7489 13.2491 15.1906L16.0047 16.3271L16.032 17.653ZM15.9681 14.5373L13.8494 13.6636C12.5376 13.1591 11.1335 13.1513 9.86834 13.5862L12.7716 6.57802C12.9417 6.61753 14.2454 6.54935 15.8308 7.83627L15.9681 14.5373ZM17.4747 7.80363C18.9775 6.48467 20.4209 6.44334 20.5072 6.41959L23.6819 13.2763C22.474 12.9194 21.1702 12.9976 19.9167 13.5393L17.6126 14.5358L17.4747 7.80363ZM17.6489 16.3077L20.5703 15.0443C21.6749 14.5663 22.8386 14.602 23.8583 15.1104L17.6758 17.621L17.6489 16.3077ZM26.0655 25.7394L18.9945 22.3923L25.9395 19.5915L26.0655 25.7394ZM17.7476 21.1263L17.7118 19.3768L26.6398 15.7517L22.7922 7.44323L24.2195 6.83943L28.7022 16.7083L17.7476 21.1263Z" fill="#672CBC"/>
</g>
<defs>
<clipPath id="clip0_1482_1650">
<rect width="28.0749" height="28" fill="white" transform="translate(2.52637 2.94876) rotate(-1.17372)"/>
</clipPath>
</defs>
</svg>
