<svg width="34" height="34" viewBox="0 0 34 34" fill="none" xmlns="http://www.w3.org/2000/svg">
<path d="M14.8656 23.2518L19.4376 23.1582C19.5571 21.7244 20.2243 20.5295 21.32 19.2174C21.4444 19.0696 22.2371 18.1662 22.3304 18.0381C23.1054 16.9715 23.5787 15.6949 23.6959 14.3553C23.813 13.0157 23.5691 11.6677 22.9924 10.4663C22.4157 9.26496 21.5295 8.25921 20.436 7.56487C19.3425 6.87054 18.086 6.51587 16.8114 6.54169C15.5367 6.56752 14.2957 6.9728 13.2313 7.71086C12.1668 8.44892 11.3222 9.48974 10.7946 10.7135C10.2671 11.9372 10.0781 13.2941 10.2495 14.6278C10.4208 15.9615 10.9455 17.2179 11.7631 18.2522C11.8627 18.3776 12.6941 19.2489 12.8222 19.3903C13.9719 20.6576 14.6874 21.8242 14.8656 23.2518ZM19.4559 25.5394L14.9448 25.6318L14.9692 26.8221L19.4803 26.7297L19.4559 25.5394ZM10.0344 19.7785C8.94352 18.3996 8.24326 16.7245 8.01425 14.946C7.78523 13.1675 8.03679 11.358 8.73993 9.72591C9.44307 8.09387 10.5692 6.70568 11.9886 5.72124C13.408 4.73681 15.0629 4.19619 16.7626 4.16165C18.4624 4.12711 20.1379 4.60006 21.5962 5.52603C23.0544 6.45199 24.236 7.79329 25.0049 9.39542C25.7738 10.9976 26.0987 12.7953 25.9422 14.5817C25.7857 16.368 25.1541 18.0702 24.1203 19.4923C23.4399 20.4255 21.6383 21.9223 21.6749 23.7077L21.7358 26.6834C21.7488 27.3148 21.5235 27.9252 21.1097 28.3803C20.6958 28.8354 20.1273 29.098 19.529 29.1102L15.018 29.2026C14.4198 29.2149 13.8409 28.9758 13.4088 28.5381C12.9766 28.1003 12.7266 27.4997 12.7137 26.8683L12.6527 23.8926C12.6161 22.1072 10.7536 20.6854 10.0344 19.7785ZM18.0843 13.6644L20.9038 13.6066L15.9751 20.8523L15.8776 16.0912L13.0582 16.1489L17.9867 8.89851L18.0844 13.6656L18.0843 13.6644Z" fill="#8789A3"/>
</svg>
