<svg width="25" height="25" viewBox="0 0 25 25" fill="none" xmlns="http://www.w3.org/2000/svg">
<path d="M16.4249 13.1883C16.1705 14.3999 14.8168 15.2702 12.1096 17.0106C9.16509 18.9036 7.69284 19.8501 6.50033 19.4854C6.09643 19.3619 5.72444 19.1448 5.41208 18.8501C4.48981 17.9803 4.48981 16.1743 4.48981 12.5625C4.48981 8.95066 4.48981 7.14474 5.41208 6.27485C5.72444 5.98023 6.09643 5.76307 6.50033 5.63957C7.69285 5.27493 9.16509 6.2214 12.1096 8.11436C14.8168 9.85483 16.1705 10.7251 16.4249 11.9367C16.5114 12.349 16.5114 12.776 16.4249 13.1883Z" fill="#616161" stroke="#616161" stroke-width="1.5" stroke-linejoin="round"/>
<path d="M20.4898 5.5625V19.5625" stroke="#616161" stroke-width="1.5" stroke-linecap="round"/>
</svg>
