<svg width="25" height="25" viewBox="0 0 25 25" fill="none" xmlns="http://www.w3.org/2000/svg">
<path d="M8.55474 13.1883C8.80913 14.3999 10.1628 15.2702 12.87 17.0106C15.8145 18.9036 17.2868 19.8501 18.4793 19.4854C18.8832 19.3619 19.2552 19.1448 19.5675 18.8501C20.4898 17.9803 20.4898 16.1743 20.4898 12.5625C20.4898 8.95066 20.4898 7.14474 19.5675 6.27485C19.2552 5.98023 18.8832 5.76307 18.4793 5.63957C17.2868 5.27493 15.8145 6.2214 12.87 8.11436C10.1628 9.85483 8.80913 10.7251 8.55474 11.9367C8.46818 12.349 8.46818 12.776 8.55474 13.1883Z" fill="#616161" stroke="#616161" stroke-width="1.5" stroke-linejoin="round"/>
<path d="M4.48982 4.5625V20.5625" stroke="#616161" stroke-width="1.5" stroke-linecap="round"/>
</svg>
