<svg width="34" height="33" viewBox="0 0 34 33" fill="none" xmlns="http://www.w3.org/2000/svg">
<g clip-path="url(#clip0_1482_1664)">
<path d="M24.789 25.3125L24.7689 24.3311C24.7369 22.7679 23.837 21.3804 22.4208 20.7099L19.7324 19.4374L19.6308 14.481C19.604 13.1743 18.9705 11.9903 17.9356 11.2453C17.9829 10.9555 18.155 10.709 18.3837 10.6279C20.0547 10.035 21.1526 8.4481 21.1163 6.67878C21.0644 4.14427 18.7544 2.27073 16.2369 2.73212C14.2901 3.0886 12.8536 4.9336 12.8964 7.02283L12.9532 9.7949C10.9478 11.9998 9.76817 14.9557 9.8329 18.1151L9.92781 22.7474C9.95297 23.9751 10.3203 25.143 10.9819 26.1434C9.45743 26.7694 8.39585 28.2823 8.4315 30.0221L8.4483 30.8422L24.0729 30.5221C25.4331 30.4942 26.5175 29.3676 26.4897 28.0111C26.4787 27.4497 26.3146 26.9018 26.0149 26.4263C25.7153 25.9509 25.2915 25.5658 24.789 25.3125ZM21.8763 22.2757C22.6326 22.7027 23.1061 23.4879 23.124 24.3648L23.132 24.7536L21.2564 24.1723L21.8763 22.2757ZM14.5412 6.98913C14.5147 5.69549 15.3716 4.55874 16.5343 4.34561C18.1072 4.05701 19.4415 5.24136 19.4716 6.71248C19.4829 7.22915 19.3305 7.73622 19.0363 8.16164C18.742 8.58707 18.3209 8.90922 17.8326 9.0823C17.1879 9.31092 16.6937 9.82274 16.4487 10.4651L14.5945 9.58733L14.5412 6.98913ZM11.4776 18.0814C11.4248 15.5053 12.3104 13.0528 13.9813 11.1135L16.5771 12.3419C17.4271 12.7439 17.9669 13.577 17.9861 14.5147L18.1085 20.4848L20.3798 21.5602L19.6855 23.6859L16.5085 22.7013L16.3503 14.9815L14.7056 15.0152L14.888 23.9172L17.396 24.6944C16.324 25.9312 14.5977 26.4557 12.9678 25.9509L12.9153 25.9344C12.0731 25.0649 11.5974 23.9292 11.5725 22.7137L11.4776 18.0814ZM24.0393 28.8818L10.2003 29.1654C10.5076 28.2407 11.352 27.5544 12.3695 27.4832C12.4429 27.5 13.2208 27.8044 14.3453 27.7813C16.2206 27.7429 17.9932 26.803 19.0664 25.2117L23.8187 26.684C24.1115 26.7745 24.3682 26.9547 24.5524 27.199C24.7367 27.4432 24.8391 27.7392 24.8451 28.0448C24.8543 28.497 24.4929 28.8725 24.0393 28.8818L24.0393 28.8818Z" fill="#8789A3"/>
</g>
<defs>
<clipPath id="clip0_1482_1664">
<rect width="28.0749" height="28" fill="white" transform="translate(2.88599 2.9501) rotate(-1.17372)"/>
</clipPath>
</defs>
</svg>
