<svg width="25" height="25" viewBox="0 0 25 25" fill="none" xmlns="http://www.w3.org/2000/svg">
<path d="M20.5474 4.5625L21.4449 5.53824C21.8459 5.97415 22.0464 6.19211 21.9759 6.37731C21.9053 6.5625 21.6218 6.5625 21.0547 6.5625C19.7854 6.5625 18.2669 6.35743 17.1009 7.0358C16.3801 7.45522 15.8781 8.18767 15.029 9.5625M3.98981 18.5625H5.57063C7.49854 18.5625 8.4625 18.5625 9.27601 18.0892C9.99689 17.6698 10.4988 16.9373 11.348 15.5625" stroke="#616161" stroke-width="1.5" stroke-linecap="round" stroke-linejoin="round"/>
<path d="M20.5474 20.5625L21.4449 19.5868C21.8459 19.1508 22.0464 18.9329 21.9759 18.7477C21.9053 18.5625 21.6218 18.5625 21.0547 18.5625C19.7854 18.5625 18.2669 18.7676 17.1009 18.0892C16.2874 17.6159 15.7527 16.744 14.6833 15.0001L11.6936 10.1249C10.6242 8.38103 10.0895 7.5091 9.27601 7.0358C8.4625 6.5625 7.49854 6.5625 5.57063 6.5625H3.98981" stroke="#616161" stroke-width="1.5" stroke-linecap="round" stroke-linejoin="round"/>
</svg>
